<svg width="246" height="271" viewBox="0 0 246 271" fill="none" xmlns="http://www.w3.org/2000/svg">
<path d="M142.5 25C142.5 38.8071 131.307 50 117.5 50C103.693 50 92.5 38.8071 92.5 25C92.5 11.1929 103.693 0 117.5 0C131.307 0 142.5 11.1929 142.5 25Z" fill="#61ACDE"/>
<path d="M235.5 75C235.5 88.8071 224.307 100 210.5 100C196.693 100 185.5 88.8071 185.5 75C185.5 61.1929 196.693 50 210.5 50C224.307 50 235.5 61.1929 235.5 75Z" fill="#E32D40"/>
<path d="M245.132 186.5C245.132 200.307 233.939 211.5 220.132 211.5C206.325 211.5 195.132 200.307 195.132 186.5C195.132 172.693 206.325 161.5 220.132 161.5C233.939 161.5 245.132 172.693 245.132 186.5Z" fill="#E3882D"/>
<path d="M153 246C153 259.807 141.807 271 128 271C114.193 271 103 259.807 103 246C103 232.193 114.193 221 128 221C141.807 221 153 232.193 153 246Z" fill="#ECC426"/>
<path d="M50 186.5C50 200.307 38.8071 211.5 25 211.5C11.1929 211.5 4.76837e-07 200.307 4.76837e-07 186.5C4.76837e-07 172.693 11.1929 161.5 25 161.5C38.8071 161.5 50 172.693 50 186.5Z" fill="#E578CF"/>
<path d="M50 82.6445C50 96.4516 38.8071 107.645 25 107.645C11.1929 107.645 1.52588e-05 96.4516 1.52588e-05 82.6445C1.52588e-05 68.8374 11.1929 57.6445 25 57.6445C38.8071 57.6445 50 68.8374 50 82.6445Z" fill="#5FD459"/>
</svg>
